# xmcd
#
# Track frame offsets:
#	150
#	8842
#	21102
#	32805
#	36222
#	51210
#	64285
#	70860
#	83617
#	91887
#	101457
#	113020
#	122040
#	129185
#	150052
#
# Disc length: 2406 seconds
#
# Revision: 0
# Processed by: cddbd v1.5.2PL0 Copyright (c) Steve Scherf et al.
# Submitted via: audiograbber 1.83.01
#
DISCID=ad09640f
DTITLE=Jon Wayne - Texas Funeral
DYEAR=1992
DGENRE=Rock
TTITLE0=But I've Got Texas
TTITLE1=Texas Funeral
TTITLE2=Mr. Egyptian
TTITLE3=Texas Cyclone
TTITLE4=Texas Jailcell
TTITLE5=Workin' Man Blues
TTITLE6=Shades
TTITLE7=Texas Wine
TTITLE8=Is That Justice
TTITLE9=Texas Polka
TTITLE10=You and the Kitten
TTITLE11=Apple Schnapps
TTITLE12=Truckin'
TTITLE13=151 Owl Caricatures
TTITLE14=Texas Studio
EXTD=One of the best "novelty" country-rock records\never!  Featuring:\nJon Way
EXTD=ne-guitar, vocal\nJimbo-drums\nEarnest Bovine-lead guitar\nBilly Bob-bass
EXTD=\nTimmy Turlock-bass (replaced by Billy Bob as of 9/9/91)
EXTT0=
EXTT1=
EXTT2=
EXTT3=
EXTT4=
EXTT5=
EXTT6=
EXTT7=
EXTT8=
EXTT9=
EXTT10=
EXTT11=
EXTT12=
EXTT13=
EXTT14=
PLAYORDER=
